PathFileType	4	(X/Y/Z)	markers_0_video_left_upright_43fa9c767a284c608474a81e5a60fe99.trc
DataRate	CameraRate	NumFrames	NumMarkers	Units	OrigDataRate	OrigDataStartFrame	OrigNumFrames
12.500000	12.500000	5	42	mm	12.500000	377	3015
Frame#	Time	Nose			LEye			REye			LEar			REar			LShoulder			RShoulder			LElbow			RElbow			LHip			RHip			LKnee			RKnee			LAnkle			RAnkle			LBigToe			LSmallToe			LHeel			RBigToe			RSmallToe			RHeel			RIndex			RPinky			RWrist			LIndex			LPinky			LWrist			LOlecranon			ROlecranon			LCubitalFossa			RCubitalFossa			LAcromion			RAcromion			Neck			PelvisCenter			Thorax			c_spine0			c_spine1			c_spine2			c_spine3			c_neck			c_head
		X1	Y1	Z1	X2	Y2	Z2	X3	Y3	Z3	X4	Y4	Z4	X5	Y5	Z5	X6	Y6	Z6	X7	Y7	Z7	X8	Y8	Z8	X9	Y9	Z9	X10	Y10	Z10	X11	Y11	Z11	X12	Y12	Z12	X13	Y13	Z13	X14	Y14	Z14	X15	Y15	Z15	X16	Y16	Z16	X17	Y17	Z17	X18	Y18	Z18	X19	Y19	Z19	X20	Y20	Z20	X21	Y21	Z21	X22	Y22	Z22	X23	Y23	Z23	X24	Y24	Z24	X25	Y25	Z25	X26	Y26	Z26	X27	Y27	Z27	X28	Y28	Z28	X29	Y29	Z29	X30	Y30	Z30	X31	Y31	Z31	X32	Y32	Z32	X33	Y33	Z33	X34	Y34	Z34	X35	Y35	Z35	X36	Y36	Z36	X37	Y37	Z37	X38	Y38	Z38	X39	Y39	Z39	X40	Y40	Z40	X41	Y41	Z41	X42	Y42	Z42

377	30.080000	3044.739421	1182.633107	-2094.418461	2993.366681	1216.794718	-2042.144069	3004.490195	1245.041133	-2126.030671	3028.227695	1317.326810	-1938.465098	3056.524670	1383.589099	-2135.206287	3220.336061	1381.532849	-1753.634437	3358.934845	1418.434595	-2192.387301	3493.394998	1277.577690	-1531.560353	3630.050249	1392.899133	-2445.213948	3915.713172	1125.333726	-1760.653244	3940.506910	1137.366276	-1987.362452	4329.038083	753.867131	-1748.289641	4298.970519	720.999746	-2076.873668	4829.646486	621.361295	-1749.340820	4782.912893	541.919908	-2097.177757	4763.940003	367.316136	-1757.564063	4805.763029	412.904308	-1669.257613	4907.955472	634.529762	-1748.240799	4715.090192	295.266386	-2154.183783	4766.754287	357.402289	-2224.738620	4862.053067	551.448972	-2089.728607	3706.779953	1157.037882	-2916.273770	3784.882302	1176.399697	-2856.119465	3707.607430	1255.857536	-2750.980877	3816.230417	864.004216	-1622.072108	3830.201904	937.993116	-1560.259064	3680.869138	990.218117	-1562.061117	3520.447587	1294.068905	-1491.530259	3679.527429	1414.645529	-2446.592816	3487.893706	1249.584188	-1572.168672	3597.582260	1362.442709	-2455.199913	3169.563427	1364.198572	-1769.611090	3299.521302	1414.610492	-2204.804981	3227.049335	1362.248523	-1997.844057	3928.110041	1131.350001	-1874.007848	3234.542364	1389.404532	-1987.208035	3914.063924	1203.238176	-1871.768073	3771.528506	1261.090459	-1885.571966	3640.336744	1344.831917	-1900.741815	3395.998724	1408.405843	-1949.024122	3262.168733	1372.896076	-1986.236876	3121.691316	1330.305727	-2032.665581
378	30.160000	3093.507369	1183.075515	-2061.466852	3043.325360	1219.845867	-2010.011039	3052.369279	1243.231011	-2095.410088	3079.769414	1325.904666	-1913.229329	3103.242044	1380.843262	-2113.767666	3267.023597	1394.708428	-1743.173894	3401.266039	1423.870556	-2177.481254	3542.601633	1300.288496	-1521.725956	3663.225394	1408.041270	-2436.558609	3968.124200	1140.768447	-1752.487019	3990.460226	1146.355852	-1982.576079	4398.271091	779.578748	-1739.041153	4268.490316	665.974726	-2070.030436	4904.586401	667.524824	-1753.945682	4751.581854	482.870853	-2086.508398	4844.917524	413.736979	-1756.342964	4887.368610	461.829636	-1670.190917	4982.663567	682.885075	-1755.394044	4680.755414	236.374878	-2136.995878	4732.703814	296.061647	-2209.454051	4830.877417	492.421664	-2080.234318	3762.676197	1182.321170	-2908.890877	3840.461674	1209.317154	-2847.023144	3753.383542	1279.973304	-2740.458985	3859.666486	880.394397	-1595.293314	3876.467221	959.749693	-1539.692208	3729.448355	1012.739882	-1540.428716	3570.192207	1318.768685	-1482.968930	3711.037940	1433.226784	-2438.088541	3536.519238	1270.415336	-1560.793274	3633.417110	1375.840132	-2446.106142	3216.678982	1375.793350	-1756.614313	3341.829872	1418.311384	-2189.590783	3273.342217	1369.253236	-1981.318925	3979.292213	1143.562149	-1867.531549	3279.254427	1397.052367	-1973.102548	3966.623820	1215.502146	-1866.973075	3823.712562	1276.275096	-1878.980407	3690.589529	1359.793959	-1892.630478	3442.239547	1419.108511	-1937.260687	3307.476953	1380.924528	-1971.712710	3170.938164	1334.238937	-2010.137550
379	30.240000	3126.024279	1206.541651	-2060.612425	3076.522864	1243.996265	-2009.186150	3086.295712	1267.836710	-2094.331405	3114.979717	1348.803296	-1910.701757	3140.315739	1405.158306	-2111.942024	3309.443472	1410.441738	-1739.186287	3438.659262	1438.769282	-2175.279342	3583.757491	1311.258282	-1517.928001	3705.155284	1434.663273	-2433.689160	3995.575612	1126.331297	-1754.526348	4016.752172	1126.341070	-1985.025761	4427.563450	778.206996	-1733.598830	4239.085638	623.828544	-2059.895915	4931.148364	664.354245	-1736.256588	4723.318152	449.659045	-2055.144168	4866.237212	411.354727	-1736.661113	4908.265827	459.714279	-1650.057384	5009.416975	678.700238	-1736.068961	4653.260007	203.891450	-2102.562926	4706.801653	262.256287	-2174.780080	4802.598508	460.071906	-2046.983791	3834.605951	1240.738389	-2911.097501	3905.319255	1263.807498	-2840.372929	3810.692938	1330.594152	-2741.155151	3873.853013	871.635525	-1577.393370	3897.234066	951.804157	-1523.269072	3753.322476	1015.109908	-1525.453401	3612.762251	1329.848341	-1480.320231	3753.139296	1460.174962	-2432.092499	3575.513607	1280.147143	-1555.510420	3675.969184	1403.306171	-2446.026046	3257.918837	1394.195379	-1752.374612	3379.042009	1435.535159	-2187.251287	3310.279912	1385.592476	-1979.250447	4006.163892	1126.336184	-1869.776055	3318.480423	1414.865269	-1969.812950	3995.912645	1198.789514	-1870.753226	3855.586730	1264.819669	-1882.344351	3726.682276	1354.311978	-1895.273268	3481.635667	1426.830376	-1936.676860	3344.842349	1395.530774	-1969.747478	3206.592675	1355.777373	-2007.759354
380	30.320000	3055.833379	1203.465526	-2021.078531	3008.722435	1240.870288	-1967.160075	3012.275547	1262.805515	-2053.524563	3050.553588	1348.994052	-1874.523039	3061.133108	1400.544102	-2077.488493	3255.295512	1420.181308	-1715.527132	3360.230355	1443.096975	-2159.961926	3543.442173	1345.266460	-1508.695788	3624.242083	1441.550499	-2412.602784	3941.445309	1133.011132	-1766.458811	3953.534587	1127.166486	-2001.433777	4388.860813	798.292429	-1733.426889	4175.217160	616.444591	-2064.088077	4894.471289	694.306946	-1741.434933	4663.537081	453.364796	-2060.019627	4835.433987	441.300356	-1730.795504	4878.103640	493.508075	-1647.190595	4972.310079	710.282284	-1743.335234	4597.198471	204.872179	-2096.038618	4648.719459	260.946540	-2171.576278	4742.740309	465.854983	-2053.464709	3746.632534	1247.522896	-2887.129755	3817.571764	1272.811443	-2818.482721	3721.729535	1337.923008	-2717.440352	3850.571910	919.637056	-1540.662156	3870.701570	1006.210816	-1499.294463	3723.802073	1059.750155	-1499.057653	3573.845033	1368.395443	-1474.709265	3672.011347	1466.757667	-2410.978253	3534.253940	1310.940524	-1542.707310	3594.798504	1410.283915	-2424.977350	3203.515896	1403.259458	-1725.648109	3300.286658	1438.498044	-2169.012792	3240.484415	1389.742671	-1956.315474	3947.489948	1130.088809	-1883.946294	3251.901277	1420.878751	-1947.330451	3937.132198	1202.052493	-1886.223189	3795.357718	1269.474378	-1891.886414	3664.622375	1359.844929	-1898.866775	3415.093243	1433.265329	-1925.196306	3275.537300	1401.010445	-1949.310128	3135.325797	1355.939244	-1977.331513
381	30.400000	3071.994664	1217.488400	-1999.292560	3025.211736	1254.421431	-1944.452045	3025.992769	1275.706834	-2031.390805	3066.897854	1364.911479	-1853.700199	3070.909334	1414.939266	-2057.900210	3291.659169	1438.251498	-1704.814483	3367.480630	1456.500576	-2151.261982	3592.175927	1364.024404	-1512.483713	3660.123812	1467.021816	-2374.047667	3964.630346	1136.788623	-1784.925563	3968.378945	1125.841458	-2018.529296	4422.717080	824.497258	-1758.195563	4205.624815	628.233835	-2080.260908	4930.708119	731.139206	-1775.009592	4694.790216	466.664307	-2087.939268	4881.703295	475.126998	-1754.795987	4925.554334	531.323540	-1674.092494	5007.724568	749.872705	-1779.711807	4632.900511	215.648087	-2115.967067	4681.292538	270.794224	-2194.109067	4773.793154	480.508667	-2083.786655	3819.115535	1282.157235	-2842.782973	3882.109417	1298.761734	-2765.905275	3780.639786	1368.762138	-2676.444007	3895.048990	934.063234	-1548.799385	3915.702431	1021.704025	-1509.254702	3767.741815	1072.650002	-1502.340508	3625.025531	1387.437402	-1481.176338	3707.579917	1491.308514	-2367.598347	3580.277451	1328.795508	-1544.537509	3631.339101	1436.359306	-2390.312939	3237.968602	1422.593004	-1710.912773	3308.576884	1451.572389	-2161.005373	3256.635054	1404.482146	-1943.616032	3966.504645	1131.315040	-1901.727429	3273.272743	1437.082697	-1935.959073	3955.129527	1203.687463	-1905.352750	3812.815927	1270.785637	-1906.274809	3682.914885	1362.910845	-1908.902602	3434.278304	1444.270930	-1922.981985	3292.491154	1415.143479	-1938.510298	3149.067025	1372.497868	-1958.933222
